# xmcd
#
# Track frame offsets:
#	150
#	11212
#	28336
#	42778
#	52181
#	65712
#	78976
#	89499
#	100026
#	117712
#	134955
#	145894
#	165341
#
# Disc length: 2393 seconds
#
# Revision: 1
# Processed by: cddbd v1.5.1PL2 Copyright (c) Steve Scherf et al.
# Submitted via: EasyCDDAExtractor 6.5.0.1
#
DISCID=c109570d
DTITLE=Czerwone Gitary
DYEAR=1900
DGENRE=
TTITLE0=Moda i milosc
TTITLE1=Wrócmy nad jeziora
TTITLE2=Bialy Krzyz
TTITLE3=Jesli tego chcesz
TTITLE4=Ballada pasterska
TTITLE5=W moich myslach Consuelo
TTITLE6=Nie licz dni
TTITLE7=Takie ladne oczy
TTITLE8=Gdy kiedys znów zawolam Cie
TTITLE9=Anna Maria
TTITLE10=Dozwolone od lat 18-stu
TTITLE11=Jedno jest zycie
TTITLE12=Chcialbym to widziec
EXTD=
EXTT0=
EXTT1=
EXTT2=
EXTT3=
EXTT4=
EXTT5=
EXTT6=
EXTT7=
EXTT8=
EXTT9=
EXTT10=
EXTT11=
EXTT12=
PLAYORDER=
